PathFileType  4	(X/Y/Z)
DataRate	CameraRate	NumFrames	NumMarkers	Units	OrigDataRate	OrigDataStartFrame	OrigNumFrames
  200.0 	  200.0 	   6 	     50 	mm 	  200.0 	      452 	   1204
Frame#	Time	R.Shoulder			R.Clavicle			R.Bicep			R.Elbow			R.Forearm			R.Wrist			L.Shoulder			L.Clavicle			L.Scapula			L.Bicep			L.Elbow			L.Forearm			L.Wrist			R.ASIS			R.PSIS			S2			L.PSIS			L.ASIS			R.TH1			R.TH2			R.TH3			R.Knee			R.SH1			R.SH2			R.SH3			R.SH4			R.Ankle			R.Heel			R.MT5			L.TH1			L.TH2			L.TH3			L.TH4			L.Knee			L.SH1			L.SH2			L.SH3			L.Ankle			L.Heel			L.MT5			R.Melb			R.GTR			R.Mkn			R.Man			R.MT0			L.Melb			L.GTR			L.Mkn			L.Man			L.MT0			
		X1	Y1	Z1	X2	Y2	Z2	X3	Y3	Z3	X4	Y4	Z4	X5	Y5	Z5	X6	Y6	Z6	X7	Y7	Z7	X8	Y8	Z8	X9	Y9	Z9	X10	Y10	Z10	X11	Y11	Z11	X12	Y12	Z12	X13	Y13	Z13	X14	Y14	Z14	X15	Y15	Z15	X16	Y16	Z16	X17	Y17	Z17	X18	Y18	Z18	X19	Y19	Z19	X20	Y20	Z20	X21	Y21	Z21	X22	Y22	Z22	X23	Y23	Z23	X24	Y24	Z24	X25	Y25	Z25	X26	Y26	Z26	X27	Y27	Z27	X28	Y28	Z28	X29	Y29	Z29	X30	Y30	Z30	X31	Y31	Z31	X32	Y32	Z32	X33	Y33	Z33	X34	Y34	Z34	X35	Y35	Z35	X36	Y36	Z36	X37	Y37	Z37	X38	Y38	Z38	X39	Y39	Z39	X40	Y40	Z40	X41	Y41	Z41	X42	Y42	Z42	X43	Y43	Z43	X44	Y44	Z44	X45	Y45	Z45	X46	Y46	Z46	X47	Y47	Z47	X48	Y48	Z48	X49	Y49	Z49	X50	Y50	Z50	

452	2.25500	537.118	1605.789	-1931.541	617.139	1600.392	-2081.573	587.164	1396.935	-1883.907	470.621	1305.934	-1852.081	551.462	1247.506	-1763.789	503.530	1132.487	-1733.638	572.126	1609.957	-2308.491	626.778	1600.794	-2139.044	444.865	1576.146	-2215.079	614.673	1453.703	-2354.147	518.674	1315.588	-2411.592	583.812	1252.524	-2478.734	548.144	1134.197	-2502.397	659.429	1150.883	-1987.405	428.470	1226.742	-2068.027	422.351	1220.075	-2119.241	435.445	1229.220	-2174.594	658.328	1140.237	-2242.421	596.030	945.188	-1905.462	446.184	959.229	-1935.166	442.558	884.389	-1942.207	494.626	736.516	-1913.319	519.489	604.341	-1881.092	519.659	529.615	-1887.726	410.090	610.211	-1928.977	408.764	533.899	-1924.305	482.371	333.127	-1893.880	416.048	299.492	-1943.438	601.469	276.078	-1863.838	601.139	907.009	-2311.861	604.870	826.452	-2298.899	453.043	908.587	-2305.628	447.187	831.659	-2300.481	498.500	727.338	-2312.734	540.260	641.746	-2334.010	429.555	642.736	-2319.827	424.552	567.281	-2335.944	505.390	338.176	-2357.418	421.710	297.097	-2325.788	604.792	278.570	-2384.176	537.996	1274.542	-1926.507	538.728	1094.341	-1892.319	511.013	694.015	-2077.631	506.678	337.291	-1984.808	618.654	279.224	-1978.582	591.526	1270.655	-2319.706	527.792	1112.046	-2324.195	500.391	695.210	-2145.514	511.403	333.938	-2261.617	624.114	279.341	-2261.501
453	2.26000	537.091	1605.779	-1931.558	617.127	1600.396	-2081.581	587.152	1396.940	-1883.906	470.602	1305.947	-1852.138	551.461	1247.504	-1763.790	503.501	1132.459	-1733.669	572.122	1609.979	-2308.494	626.759	1600.804	-2139.024	444.809	1576.139	-2215.087	614.664	1453.710	-2354.156	518.675	1315.615	-2411.601	583.799	1252.557	-2478.746	548.122	1134.217	-2502.422	659.427	1150.882	-1987.402	428.458	1226.739	-2068.042	422.348	1220.073	-2119.223	435.415	1229.207	-2174.607	658.299	1140.241	-2242.409	596.072	945.195	-1905.479	446.160	959.221	-1935.159	442.548	884.379	-1942.201	494.625	736.518	-1913.316	519.452	604.335	-1881.148	519.656	529.615	-1887.730	410.078	610.212	-1928.971	408.759	533.894	-1924.312	482.356	333.127	-1893.879	416.047	299.490	-1943.443	601.469	276.078	-1863.837	601.132	907.017	-2311.859	604.837	826.440	-2298.891	453.059	908.546	-2305.613	447.169	831.669	-2300.485	498.498	727.337	-2312.734	540.259	641.746	-2334.012	429.550	642.735	-2319.824	424.544	567.270	-2335.943	505.389	338.177	-2357.421	421.706	297.093	-2325.784	604.791	278.569	-2384.177	538.230	1274.503	-1926.314	538.648	1094.346	-1892.338	510.997	694.020	-2077.627	506.675	337.291	-1984.806	618.648	279.235	-1978.583	591.409	1270.639	-2319.694	527.800	1112.042	-2324.187	500.353	695.203	-2145.516	511.404	333.941	-2261.607	624.115	279.343	-2261.502
454	2.26500	537.063	1605.769	-1931.576	617.117	1600.399	-2081.586	587.137	1396.947	-1883.908	470.584	1305.962	-1852.193	551.460	1247.502	-1763.791	503.474	1132.435	-1733.693	572.120	1610.001	-2308.498	626.740	1600.816	-2139.004	444.757	1576.132	-2215.092	614.656	1453.716	-2354.163	518.676	1315.643	-2411.612	583.785	1252.593	-2478.762	548.100	1134.243	-2502.452	659.425	1150.883	-1987.395	428.448	1226.737	-2068.056	422.346	1220.073	-2119.203	435.380	1229.194	-2174.622	658.269	1140.245	-2242.396	596.118	945.201	-1905.499	446.139	959.213	-1935.153	442.538	884.368	-1942.196	494.624	736.521	-1913.314	519.409	604.328	-1881.212	519.653	529.615	-1887.735	410.068	610.213	-1928.965	408.754	533.889	-1924.320	482.341	333.128	-1893.879	416.046	299.489	-1943.447	601.469	276.078	-1863.836	601.125	907.025	-2311.857	604.802	826.427	-2298.884	453.075	908.504	-2305.601	447.155	831.679	-2300.489	498.496	727.336	-2312.734	540.258	641.747	-2334.014	429.544	642.734	-2319.822	424.535	567.259	-2335.942	505.387	338.178	-2357.423	421.702	297.090	-2325.780	604.790	278.567	-2384.179	538.479	1274.460	-1926.107	538.568	1094.351	-1892.356	510.980	694.026	-2077.624	506.672	337.290	-1984.804	618.641	279.245	-1978.583	591.280	1270.621	-2319.681	527.809	1112.037	-2324.178	500.319	695.197	-2145.518	511.404	333.943	-2261.599	624.115	279.345	-2261.503
455	2.27000	537.032	1605.758	-1931.596	617.107	1600.402	-2081.589	587.120	1396.955	-1883.913	470.568	1305.980	-1852.248	551.459	1247.503	-1763.792	503.449	1132.413	-1733.711	572.119	1610.023	-2308.502	626.721	1600.830	-2138.984	444.708	1576.126	-2215.096	614.648	1453.722	-2354.168	518.675	1315.672	-2411.625	583.769	1252.633	-2478.782	548.077	1134.274	-2502.489	659.423	1150.886	-1987.387	428.439	1226.737	-2068.067	422.346	1220.073	-2119.182	435.341	1229.180	-2174.639	658.240	1140.248	-2242.383	596.166	945.206	-1905.520	446.120	959.204	-1935.148	442.527	884.357	-1942.193	494.623	736.524	-1913.311	519.362	604.320	-1881.286	519.650	529.615	-1887.738	410.060	610.213	-1928.961	408.748	533.884	-1924.329	482.327	333.129	-1893.878	416.046	299.488	-1943.449	601.469	276.079	-1863.836	601.117	907.034	-2311.854	604.765	826.414	-2298.877	453.089	908.463	-2305.590	447.144	831.687	-2300.494	498.494	727.335	-2312.736	540.257	641.748	-2334.016	429.539	642.733	-2319.821	424.525	567.247	-2335.942	505.386	338.178	-2357.424	421.697	297.086	-2325.776	604.789	278.566	-2384.181	538.740	1274.414	-1925.888	538.489	1094.356	-1892.374	510.964	694.031	-2077.620	506.669	337.290	-1984.801	618.632	279.254	-1978.584	591.138	1270.601	-2319.669	527.816	1112.033	-2324.170	500.291	695.192	-2145.519	511.404	333.946	-2261.593	624.115	279.347	-2261.503
456	2.27500	536.999	1605.748	-1931.618	617.097	1600.405	-2081.590	587.101	1396.965	-1883.920	470.553	1305.999	-1852.302	551.459	1247.504	-1763.792	503.427	1132.395	-1733.723	572.119	1610.045	-2308.507	626.702	1600.845	-2138.964	444.663	1576.120	-2215.098	614.641	1453.727	-2354.173	518.674	1315.704	-2411.639	583.751	1252.675	-2478.806	548.052	1134.310	-2502.531	659.421	1150.890	-1987.375	428.432	1226.737	-2068.076	422.346	1220.075	-2119.159	435.299	1229.167	-2174.658	658.211	1140.251	-2242.369	596.215	945.211	-1905.543	446.103	959.195	-1935.143	442.516	884.345	-1942.192	494.622	736.527	-1913.309	519.309	604.311	-1881.367	519.648	529.615	-1887.742	410.053	610.212	-1928.958	408.743	533.880	-1924.337	482.315	333.131	-1893.877	416.045	299.488	-1943.450	601.470	276.078	-1863.835	601.109	907.044	-2311.851	604.727	826.400	-2298.870	453.102	908.423	-2305.583	447.135	831.693	-2300.499	498.491	727.335	-2312.738	540.256	641.750	-2334.019	429.534	642.733	-2319.820	424.516	567.235	-2335.942	505.384	338.178	-2357.425	421.693	297.083	-2325.772	604.787	278.565	-2384.183	539.010	1274.366	-1925.661	538.412	1094.361	-1892.392	510.948	694.036	-2077.617	506.667	337.291	-1984.799	618.624	279.261	-1978.584	590.986	1270.580	-2319.656	527.824	1112.029	-2324.162	500.268	695.188	-2145.519	511.403	333.950	-2261.588	624.115	279.349	-2261.504
457	2.28000	536.965	1605.738	-1931.640	617.088	1600.407	-2081.588	587.079	1396.976	-1883.930	470.539	1306.020	-1852.354	551.458	1247.506	-1763.791	503.406	1132.379	-1733.729	572.121	1610.067	-2308.512	626.684	1600.862	-2138.943	444.622	1576.116	-2215.099	614.633	1453.731	-2354.176	518.672	1315.736	-2411.655	583.732	1252.720	-2478.834	548.027	1134.352	-2502.579	659.416	1150.896	-1987.363	428.425	1226.738	-2068.083	422.347	1220.078	-2119.136	435.253	1229.153	-2174.680	658.183	1140.254	-2242.354	596.263	945.216	-1905.566	446.089	959.187	-1935.139	442.504	884.333	-1942.193	494.622	736.530	-1913.307	519.253	604.300	-1881.456	519.647	529.615	-1887.745	410.048	610.211	-1928.956	408.737	533.876	-1924.346	482.304	333.134	-1893.876	416.045	299.488	-1943.450	601.472	276.078	-1863.835	601.100	907.054	-2311.848	604.687	826.386	-2298.864	453.112	908.385	-2305.580	447.129	831.698	-2300.503	498.487	727.335	-2312.741	540.255	641.752	-2334.021	429.529	642.733	-2319.820	424.506	567.223	-2335.942	505.383	338.178	-2357.426	421.689	297.080	-2325.767	604.786	278.564	-2384.185	539.284	1274.316	-1925.428	538.337	1094.367	-1892.409	510.934	694.041	-2077.614	506.665	337.291	-1984.796	618.614	279.267	-1978.584	590.824	1270.558	-2319.644	527.830	1112.026	-2324.154	500.253	695.185	-2145.517	511.401	333.953	-2261.585	624.115	279.350	-2261.505
